<svg width="40" height="40" viewBox="0 0 40 40" fill="none" xmlns="http://www.w3.org/2000/svg">
<path d="M26.6667 26.6669C30.143 23.1905 30.143 16.81 26.6667 13.3336M30 31.6669C36.6425 25.0244 36.6795 15.013 30 8.33358M12.9882 15.0002H5.83333C5.3731 15.0002 5 15.3733 5 15.8336V24.1669C5 24.6271 5.3731 25.0002 5.83333 25.0002H12.9882C13.2092 25.0002 13.4211 25.088 13.5774 25.2443L20.2441 31.911C20.769 32.436 21.6667 32.0642 21.6667 31.3217V8.67875C21.6667 7.93633 20.769 7.56453 20.2441 8.0895L13.5774 14.7562C13.4211 14.9124 13.2092 15.0002 12.9882 15.0002Z" stroke="#1B1D1F" stroke-width="2" stroke-linecap="round"/>
</svg>
